<?xml version="1.0" encoding="utf-8"?>
<!-- Generator: Adobe Illustrator 18.1.1, SVG Export Plug-In . SVG Version: 6.00 Build 0)  -->
<svg version="1.1" id="Layer_1" xmlns="http://www.w3.org/2000/svg" xmlns:xlink="http://www.w3.org/1999/xlink" x="0px" y="0px"
	 viewBox="120 35 286 187" enable-background="new 120 35 286 187" xml:space="preserve">
<g enable-background="new    ">
	<path fill="#FFFFFF" d="M184.2,159.2c-11,0-19.8-3.6-26.4-10.8c-6.6-7.2-9.9-16.7-9.9-28.6V53.1h32.7v60.3c0,5.9,1.5,10.5,4.5,13.8
		s7.2,5,12.5,5c5.4,0,9.7-1.7,13-5.1s4.9-8.2,4.9-14.3V53h32.6v104.7h-30.7l-0.5-22.7c-2.8,7.3-6.9,13.1-12.2,17.5
		C199.5,157,192.6,159.2,184.2,159.2z"/>
	<path fill="#FFFFFF" d="M304.1,159.2c-11,0-19.8-3.6-26.4-10.8c-6.6-7.2-9.9-16.7-9.9-28.6V53.1h32.7v60.3c0,5.9,1.5,10.5,4.5,13.8
		s7.2,5,12.5,5c5.4,0,9.7-1.7,13-5.1s4.9-8.2,4.9-14.3V53h32.7v104.7h-30.7l-0.5-22.7c-2.8,7.3-6.9,13.1-12.2,17.5
		C319.4,157,312.6,159.2,304.1,159.2z"/>
</g>
<path fill="none" stroke="#FFFFFF" stroke-width="10" stroke-linecap="round" d="M155.6,168.7c52.2,48.1,170,45.1,219.1-0.9"/>
</svg>
