<?xml version="1.0" encoding="utf-8"?>
<!-- Generator: Adobe Illustrator 18.1.1, SVG Export Plug-In . SVG Version: 6.00 Build 0)  -->
<svg version="1.1" id="Layer_1" xmlns="http://www.w3.org/2000/svg" xmlns:xlink="http://www.w3.org/1999/xlink" x="0px" y="0px"
	 viewBox="124 41 270 188" enable-background="new 124 41 270 188" xml:space="preserve">
<g enable-background="new    ">
	<path fill="#FFFFFF" d="M184.2,161.6c-11,0-19.8-3.6-26.4-10.8c-6.6-7.2-9.9-16.7-9.9-28.6V55.5h32.7v60.3c0,5.9,1.5,10.5,4.5,13.8
		s7.2,5,12.5,5c5.4,0,9.7-1.7,13-5.1s4.9-8.2,4.9-14.3V55.4h32.6v104.7h-30.7l-0.5-22.7c-2.8,7.3-6.9,13.1-12.2,17.5
		C199.5,159.4,192.6,161.6,184.2,161.6z"/>
	<path fill="#FFFFFF" d="M304.1,161.6c-11,0-19.8-3.6-26.4-10.8c-6.6-7.2-9.9-16.7-9.9-28.6V55.5h32.7v60.3c0,5.9,1.5,10.5,4.5,13.8
		s7.2,5,12.5,5c5.4,0,9.7-1.7,13-5.1s4.9-8.2,4.9-14.3V55.4h32.7v104.7h-30.7l-0.5-22.7c-2.8,7.3-6.9,13.1-12.2,17.5
		C319.4,159.4,312.6,161.6,304.1,161.6z"/>
</g>
<path fill="none" stroke="#FFFFFF" stroke-width="10" stroke-linecap="round" d="M155.6,171.1c52.2,48.1,170,45.1,219.1-0.9"/>
</svg>
