<?xml version="1.0" encoding="utf-8"?>
<!-- Generator: Adobe Illustrator 18.1.1, SVG Export Plug-In . SVG Version: 6.00 Build 0)  -->
<svg version="1.1" id="Layer_1" xmlns="http://www.w3.org/2000/svg" xmlns:xlink="http://www.w3.org/1999/xlink" x="0px" y="0px"
	 viewBox="0 285 612 221" enable-background="new 0 285 612 221" xml:space="preserve">
<g enable-background="new    ">
	<path fill="#2563EB" d="M81.8,341.6v24.3h-21v80.5H28.3v-80.5H10.7v-24.3h17.6V336c0-12,3.3-21,9.9-26.9c6.6-5.9,15.2-8.9,25.7-8.9
		c4.6,0,9,0.4,13,1.1c4.1,0.7,7.1,1.4,9,1.9l-5.2,23.9c-1.3-0.3-2.7-0.6-4.4-0.9c-1.7-0.3-3.4-0.4-5.1-0.4c-3.9,0-6.6,0.9-8.1,2.7
		c-1.5,1.8-2.3,4.2-2.3,7.3v5.9H81.8z"/>
	<path fill="#2563EB" d="M129,306.8v139.6H96.3V306.8H129z"/>
	<path fill="#2563EB" d="M185.1,447.7c-11,0-19.8-3.6-26.4-10.8c-6.6-7.2-9.9-16.7-9.9-28.6v-66.7h32.7v60.3
		c0,5.9,1.5,10.5,4.5,13.8c3,3.3,7.2,5,12.5,5c5.4,0,9.7-1.7,13-5.1c3.3-3.4,4.9-8.2,4.9-14.3v-59.8H249v104.7h-30.7l-0.5-22.7
		c-2.8,7.3-6.9,13.1-12.2,17.5C200.4,445.5,193.5,447.7,185.1,447.7z"/>
	<path fill="#2563EB" d="M305,447.7c-11,0-19.8-3.6-26.4-10.8c-6.6-7.2-9.9-16.7-9.9-28.6v-66.7h32.7v60.3c0,5.9,1.5,10.5,4.5,13.8
		c3,3.3,7.2,5,12.5,5c5.4,0,9.7-1.7,13-5.1c3.3-3.4,4.9-8.2,4.9-14.3v-59.8H369v104.7h-30.7l-0.5-22.7c-2.8,7.3-6.9,13.1-12.2,17.5
		C320.3,445.5,313.5,447.7,305,447.7z"/>
	<path fill="#2563EB" d="M388.3,483.1l7.3-23.9l4.1,1.1c5.9,1.6,10.6,1.5,14.2-0.3c3.6-1.7,5.3-4.8,5.1-9.1l-0.1-4.4l-39.1-104.9
		h34.5l15.6,51.2c1.4,4.5,2.5,9,3.5,13.5s1.8,9.1,2.7,13.8c1.1-4.7,2.2-9.4,3.4-13.9c1.2-4.5,2.5-9,3.9-13.4l16.8-51.2h34.1
		l-43.9,115.8c-3.2,8.5-7.9,15.4-14.2,20.8c-6.3,5.4-15.3,8.1-27.1,8.1C400.7,486.3,393.8,485.2,388.3,483.1z"/>
	<path fill="#2563EB" d="M550.6,448.3c-10.9,0-20.3-2.3-28.2-6.8c-7.9-4.5-13.9-10.8-18.1-18.9c-4.2-8.1-6.3-17.5-6.3-28.2
		c0-10.7,2.1-20.2,6.3-28.3c4.2-8.1,10.3-14.4,18.1-19c7.9-4.5,17.3-6.8,28.2-6.8c10.9,0,20.3,2.3,28.1,6.8
		c7.8,4.5,13.9,10.9,18.1,19c4.2,8.1,6.3,17.5,6.3,28.3c0,10.7-2.1,20.2-6.3,28.2c-4.2,8.1-10.2,14.4-18.1,18.9
		C571,446.1,561.6,448.3,550.6,448.3z M550.6,423.3c6.2,0,11-2.7,14.3-8c3.3-5.3,5-12.4,5-21.1c0-8.7-1.7-15.7-5-21
		c-3.3-5.2-8.1-7.9-14.3-7.9c-6.2,0-11,2.6-14.3,7.9c-3.3,5.2-5,12.2-5,21c0,8.7,1.7,15.8,5,21.1
		C539.6,420.6,544.4,423.3,550.6,423.3z"/>
</g>
<linearGradient id="SVGID_1_" gradientUnits="userSpaceOnUse" x1="-386.3241" y1="789.3942" x2="209.6735" y2="789.3942" gradientTransform="matrix(262.5406 -1.0606 -0.1162 -28.7766 101428.3125 22782.166)">
	<stop  offset="0" style="stop-color:#2563EB"/>
	<stop  offset="1" style="stop-color:#7C3AED"/>
</linearGradient>
<path fill="none" stroke="url(#SVGID_1_)" stroke-width="10" stroke-linecap="round" d="M156.5,457.2c52.2,48.1,170,45.1,219.1-0.9"
	/>
</svg>
